<svg version="1.1" id="Layer_1" xmlns="http://www.w3.org/2000/svg" xmlns:xlink="http://www.w3.org/1999/xlink" x="0px" y="0px"
	 width="100%" viewBox="0 0 1069 1024" enable-background="new 0 0 1069 1024" xml:space="preserve">
<path fill="#FEFEFE" opacity="1.000000" stroke="none" 
	d="
M270.962463,588.004700 
	C285.196472,594.028015 298.989624,600.134094 312.903381,605.951843 
	C323.860474,610.533325 334.966125,614.759277 346.189392,619.216125 
	C354.118958,610.973694 363.289673,605.182251 374.922058,603.566345 
	C388.613098,601.664429 400.732330,605.083679 411.175934,613.811707 
	C423.442596,624.063354 429.116882,637.557617 427.654602,653.438477 
	C426.112335,670.188049 415.510315,685.839478 397.997375,692.401672 
	C379.315918,699.401855 363.229767,694.675232 349.161530,682.293579 
	C340.486053,674.658142 336.535645,663.940796 335.133881,652.365662 
	C334.918488,650.587280 333.323669,648.163940 331.746521,647.489502 
	C317.707886,641.486023 303.475128,635.938232 289.407288,630.000793 
	C273.629822,623.341919 257.950745,616.448792 242.257584,609.591797 
	C236.909714,607.255066 231.649078,604.718750 225.408447,601.839966 
	C227.511017,606.859436 229.074951,611.379578 231.230240,615.597656 
	C239.136108,631.069824 246.512894,646.877502 255.443680,661.744995 
	C267.655304,682.074219 280.803253,701.864807 294.138367,721.486267 
	C302.003784,733.059570 310.594147,744.207031 319.607544,754.915527 
	C329.752014,766.967712 340.615875,778.426392 351.404419,789.920288 
	C358.237671,797.200195 365.141144,804.489502 372.650879,811.044006 
	C389.877106,826.079407 406.900696,841.450989 425.107391,855.231689 
	C446.192444,871.190918 468.075470,886.186829 490.340576,900.464966 
	C505.858032,910.416016 522.830505,918.073242 538.666992,927.566040 
	C543.849548,930.672546 547.470337,930.355896 552.157471,927.673462 
	C568.664856,918.226257 585.423584,909.211792 601.817627,899.574951 
	C613.946045,892.445618 625.959045,885.037476 637.479553,876.976257 
	C654.070740,865.366882 670.549927,853.530273 686.369507,840.904236 
	C702.294678,828.193970 717.354614,814.399719 733.230286,800.703857 
	C726.487610,794.314575 720.476746,788.472534 714.301331,782.809814 
	C708.608704,777.589722 702.648499,772.661072 696.967590,767.428711 
	C686.742004,758.010681 676.677002,748.418518 666.472900,738.976929 
	C649.625610,723.388672 632.726685,707.856079 615.838074,692.312561 
	C607.695496,684.818542 599.515381,677.365295 591.372131,669.872070 
	C574.415710,654.269226 557.476990,638.647217 540.521912,623.042969 
	C532.534180,615.691589 524.491272,608.399841 516.533630,601.015991 
	C501.906616,587.443665 486.959106,574.190002 472.825104,560.120544 
	C458.445129,545.806335 448.447052,528.348816 440.037170,509.988861 
	C432.412262,493.342712 427.996094,475.729950 427.514221,457.576019 
	C427.234650,447.043793 429.196564,436.227997 431.646027,425.894470 
	C436.623596,404.895721 445.771210,385.635162 458.949707,368.430237 
	C462.885468,363.291992 466.834503,358.123718 471.217255,353.375061 
	C489.624878,333.430450 508.235107,313.673004 526.699036,293.780151 
	C537.888428,281.724792 548.966431,269.565735 560.056030,257.418182 
	C568.788330,247.852783 577.479858,238.249969 586.144531,228.623276 
	C587.650146,226.950439 588.932007,225.076141 590.973938,223.673370 
	C588.070618,254.440399 597.823242,279.534790 623.234802,296.341827 
	C648.554382,313.087982 675.341370,312.812164 702.254456,297.817627 
	C699.157166,301.386993 696.223999,305.115906 692.934875,308.498718 
	C676.694702,325.201447 660.305420,341.759216 644.073608,358.469971 
	C625.646240,377.441010 607.333435,396.523346 588.963989,415.550690 
	C579.432861,425.423187 569.836853,435.233673 560.368408,445.165863 
	C555.489136,450.284180 550.824951,455.607422 547.709167,459.030243 
	C552.898315,465.282623 557.690613,471.879486 563.333435,477.643799 
	C570.108887,484.565155 577.686646,490.694000 584.779602,497.313202 
	C601.220154,512.655762 617.546570,528.120667 633.977661,543.473450 
	C653.233276,561.465393 672.550171,579.391724 691.841858,597.345032 
	C706.151306,610.661743 720.474365,623.963745 734.770447,637.294739 
	C750.109070,651.597839 765.435364,665.914246 780.744690,680.248718 
	C796.867065,695.344421 812.977356,710.453186 829.066040,725.584839 
	C841.230286,737.025635 853.351562,748.512146 865.495361,759.974731 
	C866.216797,760.655701 866.914673,761.378845 867.713989,761.957397 
	C872.261414,765.248291 872.697266,766.776550 869.382751,771.077637 
	C856.760986,787.455811 844.554016,804.195190 831.182068,819.941956 
	C818.150513,835.287781 804.459473,850.179810 789.994812,864.172058 
	C776.014526,877.695740 761.214050,890.512268 745.811951,902.392334 
	C722.919922,920.049622 699.785339,937.531311 675.622437,953.360413 
	C654.090576,967.465881 631.108093,979.379456 608.596924,991.958191 
	C596.869019,998.511536 584.861877,1004.584595 572.819763,1010.549438 
	C564.396179,1014.721985 555.829163,1018.689636 547.037292,1021.976257 
	C544.753174,1022.830200 541.137634,1021.285706 538.555847,1019.996948 
	C517.529907,1009.501099 496.209137,999.505310 475.756866,987.975830 
	C454.350647,975.908630 433.288849,963.066772 413.026642,949.177429 
	C390.347046,933.631104 368.392120,916.962708 346.787872,899.937500 
	C334.267609,890.070984 322.898499,878.709290 311.308258,867.707642 
	C301.614166,858.505981 292.071472,849.111084 282.955963,839.340576 
	C264.346863,819.394226 246.588760,798.706787 230.876450,776.352356 
	C221.594193,763.146240 211.957581,750.160278 203.286148,736.561523 
	C194.038040,722.058533 185.561432,707.050781 177.085739,692.072266 
	C170.945129,681.220459 165.017014,670.219788 159.611282,658.988464 
	C153.764145,646.840027 148.345047,634.464111 143.261093,621.974976 
	C136.284882,604.837341 129.238068,587.691467 123.263618,570.193420 
	C117.386902,552.981567 112.662506,535.367371 107.716393,517.849609 
	C104.268364,505.637573 100.964401,493.365112 98.199013,480.984985 
	C94.541771,464.612122 91.067810,448.176697 88.255646,431.642212 
	C84.776169,411.184204 81.677971,390.643982 79.121635,370.051575 
	C76.879372,351.989105 75.193695,333.832520 74.021706,315.668549 
	C72.558159,292.985779 71.637566,270.260254 70.922905,247.539322 
	C70.321800,228.428604 70.143150,209.297821 70.164917,190.176376 
	C70.183411,173.928162 70.336761,157.658569 71.190094,141.438416 
	C72.202972,122.185646 74.028786,102.975655 75.479645,84.042747 
	C148.264832,63.370995 221.806793,45.157093 297.524628,35.314762 
	C297.620453,36.275902 297.820984,37.353706 297.821716,38.431652 
	C297.839447,63.930237 297.753967,89.429375 297.922058,114.926857 
	C297.947906,118.842865 296.806976,119.608986 292.942413,120.103203 
	C280.381134,121.709625 267.893799,123.957130 255.428284,126.233307 
	C240.660217,128.929947 225.923721,131.811371 211.214294,134.812439 
	C203.329773,136.421051 195.518234,138.397446 187.696503,140.301254 
	C178.856110,142.452972 170.115555,145.104797 161.189407,146.782913 
	C155.117599,147.924423 154.010056,151.589401 153.983292,156.648224 
	C153.960403,160.974136 153.748611,165.298767 153.698990,169.624863 
	C153.436096,192.554764 153.049362,215.484695 153.014877,238.415100 
	C152.997955,249.669754 153.417343,260.938538 154.050964,272.177765 
	C155.183044,292.257904 156.178650,312.362946 158.076248,332.377502 
	C159.726883,349.787140 162.330994,367.117889 164.904938,384.425293 
	C167.546371,402.186432 170.169571,419.976105 173.708084,437.570801 
	C177.298950,455.425812 181.553986,473.178680 186.334808,490.754181 
	C191.319550,509.079285 197.276169,527.140137 202.816177,545.314026 
	C203.567596,547.779053 204.019104,550.421387 205.239243,552.634399 
	C206.542191,554.997681 208.152390,557.838806 210.384277,558.941589 
	C230.352448,568.807556 250.487595,578.335632 270.962463,588.004700 
M404.003143,644.085266 
	C400.519440,632.134583 392.483246,626.600769 382.213165,626.306946 
	C373.009491,626.043762 365.219879,630.335632 361.040985,639.356384 
	C357.272736,647.490662 357.913513,655.372131 363.131348,662.551025 
	C368.755402,670.288818 376.600586,673.512085 386.056549,671.646667 
	C397.513123,669.386536 406.220245,658.962585 404.003143,644.085266 
z"/>
<path fill="#E80C0C" opacity="1.000000" stroke="none" 
	d="
M466.675629,338.042603 
	C452.320892,352.606659 439.737976,368.731964 430.961945,387.070709 
	C424.571747,400.423828 420.567383,415.055511 416.745667,429.448151 
	C414.551025,437.713165 414.485199,446.621735 414.086578,455.269440 
	C413.209381,474.299164 418.091248,492.274384 424.989014,509.791229 
	C431.955811,527.483337 441.351044,543.821106 453.021423,558.805603 
	C456.939087,563.835754 461.467194,568.390503 465.838623,573.938477 
	C465.960968,625.959778 465.960968,677.205139 465.960968,728.903625 
	C419.212677,728.903625 373.116608,728.903625 326.988007,728.445251 
	C326.948029,705.306824 326.917236,682.626648 326.980713,659.946777 
	C326.985443,658.258179 327.666199,656.571472 328.032715,654.883850 
	C329.685669,671.220642 337.953979,684.020447 350.657166,693.570129 
	C361.119781,701.435547 373.650055,704.338989 386.751038,702.748840 
	C406.204803,700.387634 420.796600,690.372925 429.542542,672.850891 
	C434.543152,662.832520 436.693817,652.238892 434.496429,640.593140 
	C432.405762,629.513000 427.756012,620.023926 420.329346,612.133667 
	C413.953857,605.360168 406.148376,600.035767 396.167084,597.755798 
	C395.474701,597.249695 395.218445,597.092957 394.901550,597.035339 
	C394.901550,597.035339 395.000122,597.055725 394.803925,596.752808 
	C385.431976,594.352356 376.288330,593.712891 367.232361,597.052979 
	C361.763000,599.825562 356.206299,602.442749 350.865509,605.444092 
	C348.602234,606.716064 346.792419,608.794861 344.593964,610.662048 
	C339.250824,608.391296 333.744232,606.051086 328.066345,603.180420 
	C327.894989,602.649963 327.929626,602.173889 327.950623,601.694763 
	C327.981079,414.751007 327.998138,228.286346 327.954376,41.821716 
	C327.953339,37.345673 327.381439,32.905605 331.906219,30.051899 
	C338.393127,29.369625 344.874146,28.624199 351.368134,28.017872 
	C366.124878,26.640076 380.874054,25.143299 395.652344,24.045280 
	C410.919434,22.910944 426.210938,22.056074 441.503815,21.334200 
	C453.046906,20.789328 464.609009,20.646582 476.841034,20.531425 
	C483.763092,20.499830 490.006744,20.261669 496.250397,20.023508 
	C521.889221,20.014996 547.528015,20.006483 574.012695,20.162523 
	C576.644775,20.512829 578.428833,20.834572 580.217407,20.862074 
	C591.139893,21.030046 602.063416,21.131222 613.334229,21.474110 
	C625.850220,21.815311 638.018616,21.937071 650.186951,22.058830 
	C663.288757,23.030304 676.388000,24.038040 689.493164,24.961666 
	C699.797424,25.687887 710.121216,26.163748 720.413818,27.020292 
	C730.559937,27.864643 740.704956,28.836535 750.801392,30.134069 
	C764.400024,31.881676 777.938965,34.089233 791.527527,35.921616 
	C802.737671,37.433273 814.028870,38.391190 825.199036,40.138393 
	C836.099976,41.843464 846.887756,44.265930 857.735168,46.320824 
	C866.364258,47.955502 875.044312,49.340080 883.635498,51.150375 
	C891.872253,52.885979 900.005188,55.107922 908.216797,56.970562 
	C920.650208,59.790821 933.185364,62.195396 945.541016,65.315926 
	C957.362854,68.301605 968.998657,72.018837 980.739197,75.333191 
	C989.477661,77.800026 998.233826,80.210327 1007.024780,82.480667 
	C1009.236267,83.051788 1011.611389,82.989090 1014.743591,83.300362 
	C1015.182251,87.502060 1015.872559,91.972473 1016.080750,96.465225 
	C1017.180786,120.209679 1018.382385,143.952927 1019.109985,167.710037 
	C1019.700562,186.994202 1019.925781,206.298599 1019.830322,225.591660 
	C1019.763245,239.145752 1019.020386,252.702652 1018.336975,266.246094 
	C1017.347046,285.862640 1016.531128,305.501068 1014.890503,325.067230 
	C1013.711182,339.131897 1011.260681,353.087982 1009.472717,367.104675 
	C1008.837402,372.084839 1008.692505,377.131744 1007.960449,382.094574 
	C1006.075684,394.871857 1003.980408,407.618073 1001.983459,420.378906 
	C1000.310608,431.068787 998.968445,441.821899 996.915466,452.437866 
	C994.504944,464.901917 991.696533,477.300018 988.674133,489.631958 
	C985.013428,504.568298 981.214233,519.481506 976.990112,534.266113 
	C971.773438,552.524902 966.452271,570.772705 960.443665,588.780762 
	C954.813782,605.653992 948.852173,622.472961 941.911743,638.838806 
	C932.301208,661.500549 921.714294,683.751099 911.386963,706.104492 
	C907.471680,714.579285 903.133850,722.859558 898.946716,731.207581 
	C898.078918,732.937805 897.025696,734.575134 895.502014,737.220398 
	C873.812805,715.100037 852.612122,693.477844 831.394714,671.838623 
	C837.512817,660.084656 844.162231,648.594299 849.607666,636.559143 
	C858.683167,616.501099 868.091064,596.479980 875.344727,575.738892 
	C884.986389,548.169495 893.147217,520.051636 901.078552,491.925262 
	C906.465820,472.820496 910.565369,453.340576 914.861145,433.944366 
	C917.582703,421.655853 919.672302,409.224701 921.914307,396.833801 
	C922.967957,391.010895 923.883789,385.150146 924.505188,379.268890 
	C924.724487,377.193481 925.122192,374.953644 922.069458,373.442413 
	C902.429810,363.719940 883.068787,353.430756 863.373352,343.825867 
	C839.449524,332.158936 815.505127,320.487091 791.161682,309.741547 
	C768.771973,299.858398 745.839966,291.204346 723.150146,282.000610 
	C719.089050,280.353241 715.044128,278.665680 711.189392,277.078064 
	C697.875610,291.773163 681.692444,299.285217 661.961182,299.048981 
	C643.347534,298.826019 627.388489,291.894928 615.637817,277.866974 
	C601.146301,260.567078 595.760376,240.534241 602.875122,218.141739 
	C607.567261,203.374191 616.106323,191.664505 629.181335,183.274139 
	C642.992432,174.411392 658.325012,171.292221 674.055176,174.477585 
	C687.802917,177.261459 699.947144,183.671799 709.856934,194.820572 
	C720.297729,206.566803 724.516418,219.959579 725.989990,234.863663 
	C726.210144,237.090927 726.059021,238.417221 729.373474,238.897446 
	C733.820435,239.541763 737.981445,242.121490 742.280762,243.831268 
	C750.034912,246.914948 757.803894,249.961243 765.559875,253.040298 
	C768.999512,254.405792 772.426758,255.802719 775.852295,257.203430 
	C784.641541,260.797424 793.458801,264.325592 802.205017,268.021484 
	C812.341919,272.304993 822.400635,276.772949 832.519897,281.098755 
	C842.196533,285.235352 852.002808,289.082550 861.575134,293.445282 
	C870.484070,297.505615 879.144897,302.108124 887.941589,306.417480 
	C901.939880,313.275055 915.960449,320.087341 930.951050,327.396332 
	C931.335022,320.932587 931.689453,314.967255 932.540955,308.431061 
	C933.379028,303.111816 933.719971,298.363373 934.060913,293.614960 
	C934.060913,293.614960 934.023621,293.326630 934.309937,292.872101 
	C934.654175,290.531281 934.712036,288.645020 934.769836,286.758728 
	C935.148865,278.092163 935.660095,269.428741 935.868835,260.758087 
	C936.068665,252.459625 935.954163,244.153610 936.248230,235.277100 
	C936.759705,234.491455 936.916626,234.229279 936.989380,233.916733 
	C936.989380,233.916733 936.991882,234.002472 937.306213,233.769043 
	C937.731567,233.056396 937.939148,232.577286 937.939697,232.097916 
	C937.965210,211.748962 937.987488,191.399963 937.936584,171.051147 
	C937.934021,170.027817 937.278259,169.006104 936.926697,167.983627 
	C936.926697,167.983627 937.003845,167.993225 936.935242,167.795883 
	C936.691895,167.302032 936.439453,167.104843 936.109375,167.006973 
	C936.065247,162.180069 935.945618,157.352188 936.007080,152.526627 
	C936.040405,149.910019 935.602417,148.586823 932.426331,147.858658 
	C915.556152,143.990860 898.877380,139.262421 881.961975,135.623886 
	C861.969788,131.323486 841.824097,127.721024 821.706177,124.026558 
	C808.166016,121.540024 794.594360,119.171448 780.970886,117.207588 
	C768.953674,115.475273 756.846985,114.360703 744.776428,113.003189 
	C732.412598,111.612701 720.060425,110.091362 707.674377,108.934837 
	C695.021423,107.753403 682.333618,106.945602 669.157104,105.545425 
	C667.814270,104.780930 666.977661,104.160797 666.135986,104.153748 
	C658.105164,104.086380 650.073547,104.122818 642.042114,104.129448 
	C618.674316,103.479919 595.306946,102.811172 571.938293,102.194107 
	C565.951965,102.036034 559.961304,102.041237 553.262085,101.576714 
	C535.116516,101.108589 517.681580,101.024704 500.246552,100.998215 
	C499.511597,100.997101 498.775848,101.529930 498.040466,101.814026 
	C487.953735,102.073685 477.867004,102.333336 467.116577,102.683975 
	C466.306885,103.722031 466.033234,104.669060 466.032990,105.616165 
	C466.013641,181.643326 466.011932,257.670502 466.043518,333.697662 
	C466.044098,335.146057 466.455750,336.594299 466.675629,338.042603 
M639.480957,215.043610 
	C633.560547,223.042664 630.083740,231.516464 631.900940,241.922699 
	C634.046326,254.207901 642.074951,262.008270 652.224304,266.558563 
	C659.828674,269.967865 668.827454,269.246613 676.977112,264.704071 
	C689.108643,257.942017 697.864014,243.080521 693.419006,227.688004 
	C687.351318,206.676834 659.858887,195.247375 639.480957,215.043610 
z"/>
<path fill="#FDFDFD" opacity="1.000000" stroke="none" 
	d="
M754.825806,237.052734 
	C752.134888,236.775681 749.542053,236.284561 747.045410,235.490784 
	C744.275940,234.610275 741.621521,233.373474 738.867371,232.437958 
	C735.719055,231.368561 734.714233,229.135590 734.233032,225.973694 
	C730.508972,201.507660 717.437439,183.388992 695.684937,171.998291 
	C680.305359,163.944763 663.803711,161.509079 646.671814,165.963699 
	C646.084473,166.116425 645.519226,166.354126 644.650635,166.653030 
	C647.914490,158.138916 654.813782,153.093933 662.729614,153.093948 
	C715.388977,153.094025 768.048279,153.093765 820.707642,153.093613 
	C822.336792,153.093613 823.965881,153.093613 827.050842,153.093613 
	C802.495605,181.575500 778.730896,209.140350 754.825806,237.052734 
z"/>
<path fill="#F81111" opacity="1.000000" stroke="none" 
	d="
M331.536865,30.077244 
	C327.381439,32.905605 327.953339,37.345673 327.954376,41.821716 
	C327.998138,228.286346 327.981079,414.751007 327.660278,601.374512 
	C327.232635,599.716858 327.014587,597.900269 327.014435,596.083740 
	C326.999023,409.711700 326.999084,223.339661 327.012390,36.967628 
	C327.012543,34.977699 327.199585,32.987785 327.531982,30.986580 
	C328.161530,30.758842 328.558472,30.542395 328.955383,30.325947 
	C329.692749,30.251492 330.430145,30.177038 331.536865,30.077244 
z"/>
<path fill="#BD4A4A" opacity="1.000000" stroke="none" 
	d="
M327.299377,30.997868 
	C327.199585,32.987785 327.012543,34.977699 327.012390,36.967628 
	C326.999084,223.339661 326.999023,409.711700 327.014435,596.083740 
	C327.014587,597.900269 327.232635,599.716858 327.639282,601.853638 
	C327.929626,602.173889 327.894989,602.649963 327.850861,602.884033 
	C327.207153,602.466553 326.256866,601.894836 326.086548,601.145691 
	C325.798248,599.877625 326.000549,598.497437 326.000519,597.164429 
	C326.000183,410.182434 325.998932,223.200424 326.017822,36.218422 
	C326.018036,34.245831 326.283417,32.273262 326.840454,30.443867 
	C327.255890,30.587049 327.299377,30.997868 327.299377,30.997868 
z"/>
<path fill="#FF3232" opacity="1.000000" stroke="none" 
	d="
M327.020538,728.903625 
	C373.116608,728.903625 419.212677,728.903625 465.960968,728.903625 
	C465.960968,677.205139 465.960968,625.959778 465.986755,574.225464 
	C466.504700,574.716797 467.428894,575.697937 467.427094,576.677429 
	C467.333435,627.403259 467.161133,678.128967 466.500427,729.386597 
	C421.036011,729.941101 376.068359,729.973083 331.100739,729.940491 
	C329.740448,729.939514 328.380585,729.264404 327.020538,728.903625 
z"/>
<path fill="#FF3838" opacity="1.000000" stroke="none" 
	d="
M466.853333,337.595825 
	C466.455750,336.594299 466.044098,335.146057 466.043518,333.697662 
	C466.011932,257.670502 466.013641,181.643326 466.032990,105.616165 
	C466.033234,104.669060 466.306885,103.722031 466.755554,102.850250 
	C467.049164,181.000061 467.040070,259.074554 466.853333,337.595825 
z"/>
<path fill="#AC5757" opacity="1.000000" stroke="none" 
	d="
M326.988007,728.445251 
	C328.380585,729.264404 329.740448,729.939514 331.100739,729.940491 
	C376.068359,729.973083 421.036011,729.941101 466.463440,729.838867 
	C465.833038,730.169922 464.743286,730.938599 463.652588,730.939941 
	C418.504242,730.995056 373.355835,730.982117 328.207428,730.966553 
	C327.723053,730.966370 327.238770,730.818665 326.456543,730.691345 
	C326.307983,729.818237 326.013580,728.891724 326.012573,727.964966 
	C325.986664,704.307861 325.969177,680.650635 326.063782,656.993896 
	C326.068024,655.932800 324.491943,652.969543 328.059021,654.485046 
	C327.666199,656.571472 326.985443,658.258179 326.980713,659.946777 
	C326.917236,682.626648 326.948029,705.306824 326.988007,728.445251 
z"/>
<path fill="#E15252" opacity="1.000000" stroke="none" 
	d="
M936.959717,168.453491 
	C937.278259,169.006104 937.934021,170.027817 937.936584,171.051147 
	C937.987488,191.399963 937.965210,211.748962 937.939697,232.097916 
	C937.939148,232.577286 937.731567,233.056396 937.263306,233.769623 
	C936.934937,212.310181 936.963867,190.616776 936.959717,168.453491 
z"/>
<path fill="#C38282" opacity="1.000000" stroke="none" 
	d="
M498.502533,101.886276 
	C498.775848,101.529930 499.511597,100.997101 500.246552,100.998215 
	C517.681580,101.024704 535.116516,101.108589 552.797791,101.535912 
	C535.017639,101.912735 516.991089,101.935638 498.502533,101.886276 
z"/>
<path fill="#B94141" opacity="1.000000" stroke="none" 
	d="
M649.918335,21.702908 
	C638.018616,21.937071 625.850220,21.815311 613.363831,21.212317 
	C613.071533,20.557934 613.097229,20.384790 613.122864,20.211649 
	C625.298462,20.590096 637.474060,20.968540 649.918335,21.702908 
z"/>
<path fill="#CB6363" opacity="1.000000" stroke="none" 
	d="
M612.652161,20.096237 
	C613.097229,20.384790 613.071533,20.557934 613.016235,20.992874 
	C602.063416,21.131222 591.139893,21.030046 580.217407,20.862074 
	C578.428833,20.834572 576.644775,20.512829 574.488159,20.154001 
	C576.816589,19.683655 579.520325,19.095932 582.213440,19.140970 
	C592.204651,19.308058 602.192383,19.683586 612.652161,20.096237 
z"/>
<path fill="#D56161" opacity="1.000000" stroke="none" 
	d="
M642.333618,104.424080 
	C650.073547,104.122818 658.105164,104.086380 666.135986,104.153748 
	C666.977661,104.160797 667.814270,104.780930 668.693604,105.501259 
	C660.031067,105.496834 651.328064,105.107773 642.333618,104.424080 
z"/>
<path fill="#CA4747" opacity="1.000000" stroke="none" 
	d="
M367.651855,597.061523 
	C376.288330,593.712891 385.431976,594.352356 394.789398,596.801025 
	C386.004517,597.124817 377.037933,597.097473 367.651855,597.061523 
z"/>
<path fill="#DA6060" opacity="1.000000" stroke="none" 
	d="
M495.923615,19.738192 
	C490.006744,20.261669 483.763092,20.499830 477.242615,20.416527 
	C483.176147,19.881001 489.386505,19.666939 495.923615,19.738192 
z"/>
<path fill="#CE5555" opacity="1.000000" stroke="none" 
	d="
M933.717407,293.908508 
	C933.719971,298.363373 933.379028,303.111816 932.660400,307.992737 
	C932.646484,303.484192 933.010254,298.843109 933.717407,293.908508 
z"/>
<path fill="#CE5555" opacity="1.000000" stroke="none" 
	d="
M934.493225,287.048248 
	C934.712036,288.645020 934.654175,290.531281 934.355713,292.734131 
	C934.148926,291.146362 934.182800,289.242065 934.493225,287.048248 
z"/>
<path fill="#E80C0C" opacity="1.000000" stroke="none" 
	d="
M327.531982,30.986580 
	C327.299377,30.997868 327.255890,30.587049 327.279938,30.381538 
	C327.676453,30.163046 328.048889,30.150064 328.688354,30.231516 
	C328.558472,30.542395 328.161530,30.758842 327.531982,30.986580 
z"/>
<path fill="#E15252" opacity="1.000000" stroke="none" 
	d="
M936.111755,167.273941 
	C936.439453,167.104843 936.691895,167.302032 936.931641,167.834579 
	C936.702454,167.894043 936.408264,167.717468 936.111755,167.273941 
z"/>
<path fill="#E15252" opacity="1.000000" stroke="none" 
	d="
M936.744873,233.984665 
	C936.916626,234.229279 936.759705,234.491455 936.311523,234.806458 
	C936.236450,234.623947 936.368469,234.338272 936.744873,233.984665 
z"/>
<path fill="#CA4747" opacity="1.000000" stroke="none" 
	d="
M394.962402,597.280029 
	C395.218445,597.092957 395.474701,597.249695 395.770691,597.710938 
	C395.588470,597.785889 395.305878,597.655334 394.962402,597.280029 
z"/>
<path fill="#010101" opacity="1.000000" stroke="none" 
	d="
M404.005554,644.529297 
	C406.220245,658.962585 397.513123,669.386536 386.056549,671.646667 
	C376.600586,673.512085 368.755402,670.288818 363.131348,662.551025 
	C357.913513,655.372131 357.272736,647.490662 361.040985,639.356384 
	C365.219879,630.335632 373.009491,626.043762 382.213165,626.306946 
	C392.483246,626.600769 400.519440,632.134583 404.005554,644.529297 
M368.948029,640.495972 
	C368.169281,642.274353 367.117493,643.985657 366.660889,645.843262 
	C365.019135,652.522339 368.464569,660.131897 374.261505,663.064758 
	C381.123657,666.536560 389.049805,664.518188 394.173004,658.371582 
	C397.199890,654.740112 397.578094,644.087585 393.888916,639.403564 
	C388.713562,632.832642 375.784576,631.264160 368.948029,640.495972 
z"/>
<path fill="#010000" opacity="1.000000" stroke="none" 
	d="
M639.743042,214.789261 
	C659.858887,195.247375 687.351318,206.676834 693.419006,227.688004 
	C697.864014,243.080521 689.108643,257.942017 676.977112,264.704071 
	C668.827454,269.246613 659.828674,269.967865 652.224304,266.558563 
	C642.074951,262.008270 634.046326,254.207901 631.900940,241.922699 
	C630.083740,231.516464 633.560547,223.042664 639.743042,214.789261 
M651.816589,217.015198 
	C643.425659,221.610123 638.122986,232.987183 641.146912,241.954620 
	C646.463989,257.722443 662.652466,263.303711 675.788147,254.383301 
	C687.097595,246.703094 688.857422,230.129684 678.655029,220.672745 
	C671.504761,214.044937 662.222534,211.542099 651.816589,217.015198 
z"/>
<path fill="#FBFBFB" opacity="1.000000" stroke="none" 
	d="
M368.984283,640.112854 
	C375.784576,631.264160 388.713562,632.832642 393.888916,639.403564 
	C397.578094,644.087585 397.199890,654.740112 394.173004,658.371582 
	C389.049805,664.518188 381.123657,666.536560 374.261505,663.064758 
	C368.464569,660.131897 365.019135,652.522339 366.660889,645.843262 
	C367.117493,643.985657 368.169281,642.274353 368.984283,640.112854 
z"/>
<path fill="#E80D0D" opacity="1.000000" stroke="none" 
	d="
M652.202881,216.983032 
	C662.222534,211.542099 671.504761,214.044937 678.655029,220.672745 
	C688.857422,230.129684 687.097595,246.703094 675.788147,254.383301 
	C662.652466,263.303711 646.463989,257.722443 641.146912,241.954620 
	C638.122986,232.987183 643.425659,221.610123 652.202881,216.983032 
z"/>
</svg>